# xmcd
# 
# Track frame offsets:
#     150
#     14847
#     33477
#     48012
#     61340
#     74047
#     84975
#     93590
#     101067
#     111420
#     121687
# 
# Disc length: 1807
# 
# Revision: 7
# Processed by: cddbd v1.5.2PL0 Copyright (c) Steve Scherf et al.
# Submitted via: fre:ac v1.0.31
# 
DISCID=95070d0b
DTITLE=Putumayo Kids - New Orleans Playground
DYEAR=2006
DGENRE=Blues
TTITLE0=Clifton Chenier - Choo Choo Ch'Boogie
TTITLE1=The Meters - They All Ask'd For You
TTITLE2=Kermit Ruffins - Breakfast, Lunch and Dinner
TTITLE3=Charmaine Neville - Second Line
TTITLE4=Buckwheat Zydeco - Skip o My Blues
TTITLE5=Lee Dorsey - Ya Ya
TTITLE6=Chris Kenner - I Like it Like That
TTITLE7=Fats Domino - Whole Lotta Lovin
TTITLE8=Clarence 'Frogman' Henry - Aint't Got No Home
TTITLE9=Dr. John - Row Row Your Boat
TTITLE10=Hack Bartholomew - When the Saints Go Marchin' In
EXTD=YEAR: 2006
EXTT0=
EXTT1=
EXTT2=
EXTT3=
EXTT4=
EXTT5=
EXTT6=
EXTT7=
EXTT8=
EXTT9=
EXTT10=
PLAYORDER=
